<svg version="1.1" id="Layer_1" xmlns="http://www.w3.org/2000/svg" xmlns:xlink="http://www.w3.org/1999/xlink" x="0px" y="0px"
	 width="100%" viewBox="0 0 888 810" enable-background="new 0 0 888 810" xml:space="preserve">
<path fill="#FEFEFE" opacity="1.000000" stroke="none" 
	d="
M621.000000,811.000000 
	C414.000061,811.000000 207.500122,811.000000 1.000139,811.000000 
	C1.000092,541.000122 1.000092,271.000275 1.000046,1.000320 
	C296.999786,1.000213 592.999573,1.000213 888.999512,1.000107 
	C888.999634,270.999695 888.999634,540.999390 888.999817,810.999512 
	C799.833313,811.000000 710.666687,811.000000 621.000000,811.000000 
M439.010590,12.497635 
	C432.631958,14.259201 425.750305,15.029167 419.966461,17.963251 
	C400.506348,27.835163 390.436401,44.290272 391.112152,66.038757 
	C391.787964,87.788704 402.944092,103.405113 422.888428,112.260704 
	C426.698456,113.952408 428.163483,115.792336 428.030792,119.948677 
	C427.727875,129.437332 427.929626,138.942139 427.929535,148.440384 
	C427.929474,156.521423 427.913391,156.362350 420.144470,157.244492 
	C401.984924,159.306488 384.407135,163.619965 368.051758,171.993591 
	C352.582977,179.913269 339.162262,189.891785 333.797913,207.659546 
	C333.384644,209.028381 331.377716,210.313248 329.833466,210.881470 
	C315.636322,216.105484 301.033569,220.372467 287.194702,226.400620 
	C214.601639,258.021881 157.458832,306.740692 121.463921,378.338837 
	C119.540138,382.165466 117.470909,383.561279 113.191872,383.654358 
	C81.538979,384.342804 55.141983,411.532562 55.100258,443.251617 
	C55.056194,476.745544 55.024311,510.239594 55.085499,543.733459 
	C55.141197,574.222534 74.965561,598.337952 104.866112,604.486877 
	C117.153549,602.524719 121.394035,610.472412 126.411850,619.862305 
	C155.907593,675.058167 199.690506,716.411865 254.065414,746.380188 
	C320.677155,783.092651 392.429443,797.812439 468.265198,793.265442 
	C526.355347,789.782532 581.212708,774.668030 632.020081,746.334961 
	C689.515686,714.272217 735.112610,670.159241 764.487549,610.491150 
	C766.323120,606.762634 768.428040,605.206238 772.772705,605.088562 
	C804.791260,604.221497 830.751587,577.636353 830.887573,545.627869 
	C831.031189,511.801208 830.994934,477.973297 830.903503,444.146301 
	C830.813660,410.934784 804.851501,384.394135 771.708557,383.594727 
	C768.502258,383.517426 766.681763,382.662231 765.200256,379.568451 
	C756.401794,361.194794 745.762695,343.886322 733.097473,327.945312 
	C686.942200,269.852325 627.152649,232.242386 556.558533,210.936981 
	C554.781311,210.400620 552.524231,208.701950 552.036194,207.080368 
	C547.991577,193.640564 538.704895,184.595062 527.400208,177.366196 
	C507.724976,164.784698 485.721680,159.215942 462.762909,157.005356 
	C459.049500,156.647827 457.958618,155.388840 458.009491,151.836090 
	C458.169250,140.673813 458.127533,129.507080 458.016602,118.343544 
	C457.987457,115.410645 459.000885,113.901024 461.862823,112.871933 
	C470.522430,109.758156 477.855988,104.433273 483.406036,97.195900 
	C496.651947,79.922935 499.260132,60.825329 489.534698,41.358311 
	C479.531799,21.335945 462.327667,11.966529 439.010590,12.497635 
z"/>
<path fill="#020202" opacity="1.000000" stroke="none" 
	d="
M439.451294,12.452291 
	C462.327667,11.966529 479.531799,21.335945 489.534698,41.358311 
	C499.260132,60.825329 496.651947,79.922935 483.406036,97.195900 
	C477.855988,104.433273 470.522430,109.758156 461.862823,112.871933 
	C459.000885,113.901024 457.987457,115.410645 458.016602,118.343544 
	C458.127533,129.507080 458.169250,140.673813 458.009491,151.836090 
	C457.958618,155.388840 459.049500,156.647827 462.762909,157.005356 
	C485.721680,159.215942 507.724976,164.784698 527.400208,177.366196 
	C538.704895,184.595062 547.991577,193.640564 552.036194,207.080368 
	C552.524231,208.701950 554.781311,210.400620 556.558533,210.936981 
	C627.152649,232.242386 686.942200,269.852325 733.097473,327.945312 
	C745.762695,343.886322 756.401794,361.194794 765.200256,379.568451 
	C766.681763,382.662231 768.502258,383.517426 771.708557,383.594727 
	C804.851501,384.394135 830.813660,410.934784 830.903503,444.146301 
	C830.994934,477.973297 831.031189,511.801208 830.887573,545.627869 
	C830.751587,577.636353 804.791260,604.221497 772.772705,605.088562 
	C768.428040,605.206238 766.323120,606.762634 764.487549,610.491150 
	C735.112610,670.159241 689.515686,714.272217 632.020081,746.334961 
	C581.212708,774.668030 526.355347,789.782532 468.265198,793.265442 
	C392.429443,797.812439 320.677155,783.092651 254.065414,746.380188 
	C199.690506,716.411865 155.907593,675.058167 126.411850,619.862305 
	C121.394035,610.472412 117.153549,602.524719 104.866112,604.486877 
	C74.965561,598.337952 55.141197,574.222534 55.085499,543.733459 
	C55.024311,510.239594 55.056194,476.745544 55.100258,443.251617 
	C55.141983,411.532562 81.538979,384.342804 113.191872,383.654358 
	C117.470909,383.561279 119.540138,382.165466 121.463921,378.338837 
	C157.458832,306.740692 214.601639,258.021881 287.194702,226.400620 
	C301.033569,220.372467 315.636322,216.105484 329.833466,210.881470 
	C331.377716,210.313248 333.384644,209.028381 333.797913,207.659546 
	C339.162262,189.891785 352.582977,179.913269 368.051758,171.993591 
	C384.407135,163.619965 401.984924,159.306488 420.144470,157.244492 
	C427.913391,156.362350 427.929474,156.521423 427.929535,148.440384 
	C427.929626,138.942139 427.727875,129.437332 428.030792,119.948677 
	C428.163483,115.792336 426.698456,113.952408 422.888428,112.260704 
	C402.944092,103.405113 391.787964,87.788704 391.112152,66.038757 
	C390.436401,44.290272 400.506348,27.835163 419.966461,17.963251 
	C425.750305,15.029167 432.631958,14.259201 439.451294,12.452291 
M224.019577,563.469666 
	C247.477173,594.959351 278.737671,612.869141 318.043427,613.226318 
	C401.363647,613.983398 484.695587,613.504150 568.022583,613.410889 
	C582.328491,613.394897 596.159485,610.347839 609.370544,604.880310 
	C670.297668,579.664734 699.534241,512.584900 676.229980,451.660461 
	C658.850647,406.225647 614.273499,375.390991 565.570190,375.347412 
	C484.576111,375.274963 403.581940,375.343750 322.587799,375.308655 
	C304.157104,375.300659 286.491943,378.726746 269.937164,386.956909 
	C232.760956,405.438904 210.111710,435.281799 203.295212,476.075409 
	C198.053223,507.446289 205.294159,536.645935 224.019577,563.469666 
z"/>
<path fill="#FCFCFC" opacity="1.000000" stroke="none" 
	d="
M223.812485,563.176331 
	C205.294159,536.645935 198.053223,507.446289 203.295212,476.075409 
	C210.111710,435.281799 232.760956,405.438904 269.937164,386.956909 
	C286.491943,378.726746 304.157104,375.300659 322.587799,375.308655 
	C403.581940,375.343750 484.576111,375.274963 565.570190,375.347412 
	C614.273499,375.390991 658.850647,406.225647 676.229980,451.660461 
	C699.534241,512.584900 670.297668,579.664734 609.370544,604.880310 
	C596.159485,610.347839 582.328491,613.394897 568.022583,613.410889 
	C484.695587,613.504150 401.363647,613.983398 318.043427,613.226318 
	C278.737671,612.869141 247.477173,594.959351 223.812485,563.176331 
M276.816803,509.609406 
	C285.171448,537.329529 313.969147,552.476196 342.286682,544.044495 
	C368.722717,536.173157 384.474762,506.755951 376.548462,480.060242 
	C368.091858,451.578522 339.908295,436.504608 310.660461,444.820129 
	C284.413361,452.282471 268.781830,481.645782 276.816803,509.609406 
M510.968750,513.400269 
	C512.038147,515.650696 512.938599,518.001160 514.203003,520.136108 
	C527.486877,542.567200 554.107483,552.232300 577.593262,543.212463 
	C602.199524,533.762390 615.464417,509.586060 610.377136,483.461029 
	C604.886475,455.263855 574.533203,436.324188 547.025879,443.931549 
	C516.019287,452.506683 500.566162,481.754395 510.968750,513.400269 
z"/>
<path fill="#040404" opacity="1.000000" stroke="none" 
	d="
M276.699463,509.222260 
	C268.781830,481.645782 284.413361,452.282471 310.660461,444.820129 
	C339.908295,436.504608 368.091858,451.578522 376.548462,480.060242 
	C384.474762,506.755951 368.722717,536.173157 342.286682,544.044495 
	C313.969147,552.476196 285.171448,537.329529 276.699463,509.222260 
z"/>
<path fill="#050505" opacity="1.000000" stroke="none" 
	d="
M510.840332,513.031128 
	C500.566162,481.754395 516.019287,452.506683 547.025879,443.931549 
	C574.533203,436.324188 604.886475,455.263855 610.377136,483.461029 
	C615.464417,509.586060 602.199524,533.762390 577.593262,543.212463 
	C554.107483,552.232300 527.486877,542.567200 514.203003,520.136108 
	C512.938599,518.001160 512.038147,515.650696 510.840332,513.031128 
z"/>
</svg>