<svg width="776" height="782" viewBox="0 0 776 782" fill="none" xmlns="http://www.w3.org/2000/svg">
<circle cx="271" cy="479" r="52" fill="#00AEFF"/>
<circle cx="504" cy="479" r="52" fill="#00AEFF"/>
<path fill-rule="evenodd" clip-rule="evenodd" d="M440 52C440 75.8684 423.919 95.9808 402 102.094V148.45C453.354 151.774 493.257 173.135 494.944 199.276C594.143 226.559 673.977 290.779 712.307 373H715C748.689 373 776 400.311 776 434V532C776 565.689 748.689 593 715 593H712.77C661.716 703.683 535.551 782 388 782C240.449 782 114.284 703.683 63.2297 593H61C27.3107 593 0 565.689 0 532V434C0 400.311 27.3106 373 61 373H63.6935C102.023 290.779 181.857 226.559 281.056 199.276C282.732 173.305 322.129 152.052 373 148.517V101.804C351.594 95.3657 336 75.5039 336 52C336 23.2812 359.281 0 388 0C416.719 0 440 23.2812 440 52ZM266 363C200.83 363 148 415.83 148 481C148 546.17 200.83 599 266 599H509C574.17 599 627 546.17 627 481C627 415.83 574.17 363 509 363H266Z" fill="#C6C6C6"/>
</svg>
